<svg width="720" height="203" viewBox="0 0 720 203" fill="none" xmlns="http://www.w3.org/2000/svg">
<path d="M229.338 125.092V167.897H189.913V200H139.223V167.897H0.109121V125.092L139.223 2.87477H189.913V125.092H229.338ZM54.741 125.092H139.223V53.5641L54.741 125.092ZM358.059 202.816C279.772 202.816 242.6 166.77 242.6 101.156C242.6 35.8229 279.772 0.0586981 358.059 0.0586981C436.064 0.0586981 473.518 36.1045 473.518 101.156C473.518 166.489 436.064 202.816 358.059 202.816ZM358.059 160.293C402.553 160.293 422.828 138.046 422.828 101.156C422.828 64.5468 402.553 42.5814 358.059 42.5814C313.565 42.5814 293.289 64.2652 293.289 101.156C293.289 138.328 313.565 160.293 358.059 160.293ZM719.401 125.092V167.897H679.976V200H629.286V167.897H490.172V125.092L629.286 2.87477H679.976V125.092H719.401ZM544.804 125.092H629.286V53.5641L544.804 125.092Z" fill="url(#paint0_linear_31_12)"/>
<defs>
<linearGradient id="paint0_linear_31_12" x1="-12" y1="116" x2="732" y2="116" gradientUnits="userSpaceOnUse">
<stop stop-color="#FB8DFF"/>
<stop offset="0.537254" stop-color="#A5A586"/>
<stop offset="1" stop-color="#844BD2"/>
</linearGradient>
</defs>
</svg>
