<svg width="264" height="30" viewBox="0 0 264 30" fill="none" xmlns="http://www.w3.org/2000/svg">
<path d="M44.4038 0.495356V29H37.0741V9.45396L25.2243 29H19.9306L8.08076 9.45396V29H0.750999V0.495356H10.6462L22.5774 20.6115L34.5086 0.495356H44.4038ZM64.7878 29.4072C52.2458 29.4072 46.8706 24.1949 46.8706 14.707C46.8706 5.25971 52.2458 0.0881476 64.7878 0.0881476C77.2891 0.0881476 82.705 5.30043 82.705 14.707C82.705 24.1542 77.2891 29.4072 64.7878 29.4072ZM64.7878 23.2584C72.4026 23.2584 75.3753 20.53 75.3753 14.707C75.3753 8.92459 72.4434 6.23701 64.7878 6.23701C57.1323 6.23701 54.2004 8.88387 54.2004 14.707C54.2004 20.5708 57.173 23.2584 64.7878 23.2584ZM111.902 0.495356H120.128L105.468 29H95.451L80.7915 0.495356H89.0171L100.46 23.5841L111.902 0.495356ZM129.21 0.495356V29H121.88V0.495356H129.21ZM162.591 6.31845H139.787V12.1008H162.591V17.3945H139.787V23.1769H162.591V29H132.458V0.495356H162.591V6.31845ZM195.452 0.495356H203.677L189.018 29H179L164.341 0.495356H172.567L184.009 23.5841L195.452 0.495356ZM212.759 0.495356V29H205.429V0.495356H212.759ZM245.408 0.495356H252.737V29H242.761L223.337 7.62152V29H216.007V0.495356H225.943L245.408 21.9146V0.495356ZM256.251 23.5434H263.214V29H256.251V23.5434Z" fill="url(#paint0_linear_2_5)"/>
<defs>
<linearGradient id="paint0_linear_2_5" x1="-1" y1="16.5" x2="265" y2="16.5" gradientUnits="userSpaceOnUse">
<stop stop-color="#FB8DFF"/>
<stop offset="0.537254" stop-color="#A5A586"/>
<stop offset="1" stop-color="#844BD2"/>
</linearGradient>
</defs>
</svg>
